<svg xmlns="http://www.w3.org/2000/svg" xmlns:xlink="http://www.w3.org/1999/xlink" width="940" height="521.04"><rect width="940" height="521.04" rx="0" ry="0" class="a"/><svg height="521.04" viewBox="0 0 94 52.104" width="940" xmlns="http://www.w3.org/2000/svg" xmlns:xlink="http://www.w3.org/1999/xlink"><style>@keyframes h{0%{transform:translateX(0)}.58%{transform:translateX(-94px)}6.55%{transform:translateX(-188px)}6.91%{transform:translateX(-282px)}7.59%{transform:translateX(-376px)}7.6%{transform:translateX(-470px)}7.84%{transform:translateX(-564px)}10.43%{transform:translateX(-658px)}11.05%{transform:translateX(-752px)}12.37%{transform:translateX(-846px)}12.74%{transform:translateX(-940px)}13.22%{transform:translateX(-1034px)}13.59%{transform:translateX(-1128px)}14.58%{transform:translateX(-1222px)}15.66%{transform:translateX(-1316px)}16%{transform:translateX(-1410px)}17.71%{transform:translateX(-1504px)}19.21%{transform:translateX(-1598px)}20.1%{transform:translateX(-1692px)}20.51%{transform:translateX(-1786px)}21.96%{transform:translateX(-1880px)}22.68%{transform:translateX(-1974px)}23.56%{transform:translateX(-2068px)}23.96%{transform:translateX(-2162px)}24.25%{transform:translateX(-2256px)}25.03%{transform:translateX(-2350px)}25.88%{transform:translateX(-2444px)}26.44%{transform:translateX(-2538px)}28.43%{transform:translateX(-2632px)}28.83%{transform:translateX(-2726px)}31.34%{transform:translateX(-2820px)}34.86%{transform:translateX(-2914px)}36.07%{transform:translateX(-3008px)}39.94%{transform:translateX(-3102px)}40.91%{transform:translateX(-3196px)}43.44%{transform:translateX(-3290px)}44.41%{transform:translateX(-3384px)}50.19%{transform:translateX(-3478px)}53.09%{transform:translateX(-3572px)}55.41%{transform:translateX(-3666px)}57.98%{transform:translateX(-3760px)}62.48%{transform:translateX(-3854px)}63.28%{transform:translateX(-3948px)}63.55%{transform:translateX(-4042px)}to{transform:translateX(-4136px)}}.a{fill:#282d35}.c,.e{fill:#b9c0cb;white-space:pre}.e{fill:#b9bfca}</style><g font-family="Monaco,Consolas,Menlo,'Bitstream Vera Sans Mono','Powerline Symbols',monospace" font-size="1.67"><defs><symbol id="1"><text y="1.67" class="c">$</text></symbol><symbol id="2"><text y="1.67" class="c">$</text><text x="2.004" y="1.67" class="c">ls</text></symbol><symbol id="3"><text y="1.67" style="white-space:pre" fill="#a8cc8c" font-weight="700">main.py</text><text x="9.018" y="1.67" class="c">README.md</text></symbol><symbol id="4"><text y="1.67" class="c">$</text><text x="2.004" y="1.67" class="c">./main.py</text></symbol><symbol id="5"><text y="1.67" class="c">$</text><text x="2.004" y="1.67" class="c">./main.py</text><text x="12.024" y="1.67" class="c">/usr/bin/ls</text></symbol><symbol id="6">0<text y="1.67" class="e">00 00 00 00 00 00 00 00 b4 e7 ff ff ff 7f 00 00</text></symbol><symbol id="7">0<text y="1.67" class="e"></text></symbol><symbol id="8">0<text y="1.67" class="e">12 34 56 00 00 00 00 00 a8 e7 ff ff ff 7f 00 00</text></symbol><symbol id="9">0<text y="1.67" class="e">12 34 56 0f 00 00 00 00 a8 e7 ff ff ff 7f 00 00</text></symbol><symbol id="10"><text y="1.67" class="c">New</text><text x="4.008" y="1.67" class="c">value</text><text x="10.02" y="1.67" class="c">of</text><text x="13.026" y="1.67" class="c">memory:</text><text x="22.044" y="1.67" class="c">[&apos;0x12&apos;,</text><text x="31.062" y="1.67" class="c">&apos;0x34&apos;,</text><text x="39.078" y="1.67" class="c">&apos;0x56&apos;,</text><text x="47.094" y="1.67" class="c">&apos;0xf&apos;,</text><text x="54.108" y="1.67" class="c">&apos;0x0&apos;,</text><text x="61.122" y="1.67" class="c">&apos;0x0&apos;,</text><text x="68.136" y="1.67" class="c">&apos;0x0&apos;,</text><text x="75.15" y="1.67" class="c">&apos;0x0&apos;,</text><text x="82.164" y="1.67" class="c">&apos;0xa8&apos;,</text><text x="90.18" y="1.67" class="c">&apos;0xe</text></symbol><symbol id="11"><text y="1.67" class="c">7&apos;,</text><text x="4.008" y="1.67" class="c">&apos;0xff&apos;,</text><text x="12.024" y="1.67" class="c">&apos;0xff&apos;,</text><text x="20.04" y="1.67" class="c">&apos;0xff&apos;,</text><text x="28.056" y="1.67" class="c">&apos;0x7f&apos;,</text><text x="36.072" y="1.67" class="c">&apos;0x0&apos;,</text><text x="43.086" y="1.67" class="c">&apos;0x0&apos;,</text><text x="50.1" y="1.67" class="c">&apos;0x0&apos;,</text><text x="57.114" y="1.67" class="c">&apos;0x0&apos;,</text><text x="64.128" y="1.67" class="c">&apos;0x0&apos;,</text><text x="71.142" y="1.67" class="c">&apos;0x0&apos;,</text><text x="78.156" y="1.67" class="c">&apos;0xf0&apos;,</text><text x="86.172" y="1.67" class="c">&apos;0x0&apos;,</text><text x="93.186" y="1.67" class="c">&apos;</text></symbol><symbol id="12"><text y="1.67" class="c">0x0&apos;,</text><text x="6.012" y="1.67" class="c">&apos;0x0&apos;,</text><text x="13.026" y="1.67" class="c">&apos;0xb4&apos;,</text><text x="21.042" y="1.67" class="c">&apos;0xe7&apos;,</text><text x="29.058" y="1.67" class="c">&apos;0xff&apos;,</text><text x="37.074" y="1.67" class="c">&apos;0xff&apos;,</text><text x="45.09" y="1.67" class="c">&apos;0xff&apos;,</text><text x="53.106" y="1.67" class="c">&apos;0x7f&apos;,</text><text x="61.122" y="1.67" class="c">&apos;0x0&apos;,</text><text x="68.136" y="1.67" class="c">&apos;0x0&apos;]</text></symbol><symbol id="a"><path fill="transparent" d="M0 0h94v25H0z"/></symbol><symbol id="b"><path fill="#6f7683" d="M0 0h1.102v2.171H0z"/></symbol></defs><path class="a" d="M0 0h94v52.104H0z"/><g style="animation-duration:25.071181s;animation-iteration-count:infinite;animation-name:h;animation-timing-function:steps(1,end)"><svg width="4230"><svg><use xlink:href="#a"/><use xlink:href="#b" x="-.004"/></svg><svg x="94"><use xlink:href="#a"/><use xlink:href="#b" x="1.996"/><use xlink:href="#1"/></svg><svg x="188"><use xlink:href="#a"/><use xlink:href="#b" x="2.996"/><text y="1.67" class="c">$</text><text x="2.004" y="1.67" class="c">l</text></svg><svg x="282"><use xlink:href="#a"/><use xlink:href="#b" x="3.996"/><use xlink:href="#2"/></svg><svg x="376"><use xlink:href="#a"/><use xlink:href="#b" x="-.004" y="2.146"/><use xlink:href="#2"/></svg><svg x="470"><use xlink:href="#a"/><use xlink:href="#b" x="-.004" y="4.317"/><use xlink:href="#2"/><use xlink:href="#3" y="2.171"/></svg><svg x="564"><use xlink:href="#a"/><use xlink:href="#b" x="1.996" y="4.317"/><use xlink:href="#2"/><use xlink:href="#3" y="2.171"/><use xlink:href="#1" y="4.342"/></svg><svg x="658"><use xlink:href="#a"/><use xlink:href="#b" x="2.996" y="4.317"/><use xlink:href="#2"/><use xlink:href="#3" y="2.171"/><text y="6.012" class="c">$</text><text x="2.004" y="6.012" class="c">.</text></svg><svg x="752"><use xlink:href="#a"/><use xlink:href="#b" x="3.996" y="4.317"/><use xlink:href="#2"/><use xlink:href="#3" y="2.171"/><text y="6.012" class="c">$</text><text x="2.004" y="6.012" class="c">./</text></svg><svg x="846"><use xlink:href="#a"/><use xlink:href="#b" x="4.996" y="4.317"/><use xlink:href="#2"/><use xlink:href="#3" y="2.171"/><text y="6.012" class="c">$</text><text x="2.004" y="6.012" class="c">./m</text></svg><svg x="940"><use xlink:href="#a"/><use xlink:href="#b" x="5.996" y="4.317"/><use xlink:href="#2"/><use xlink:href="#3" y="2.171"/><text y="6.012" class="c">$</text><text x="2.004" y="6.012" class="c">./ma</text></svg><svg x="1034"><use xlink:href="#a"/><use xlink:href="#b" x="6.996" y="4.317"/><use xlink:href="#2"/><use xlink:href="#3" y="2.171"/><text y="6.012" class="c">$</text><text x="2.004" y="6.012" class="c">./mai</text></svg><svg x="1128"><use xlink:href="#a"/><use xlink:href="#b" x="7.996" y="4.317"/><use xlink:href="#2"/><use xlink:href="#3" y="2.171"/><text y="6.012" class="c">$</text><text x="2.004" y="6.012" class="c">./main</text></svg><svg x="1222"><use xlink:href="#a"/><use xlink:href="#b" x="8.996" y="4.317"/><use xlink:href="#2"/><use xlink:href="#3" y="2.171"/><text y="6.012" class="c">$</text><text x="2.004" y="6.012" class="c">./main.</text></svg><svg x="1316"><use xlink:href="#a"/><use xlink:href="#b" x="9.996" y="4.317"/><use xlink:href="#2"/><use xlink:href="#3" y="2.171"/><text y="6.012" class="c">$</text><text x="2.004" y="6.012" class="c">./main.p</text></svg><svg x="1410"><use xlink:href="#a"/><use xlink:href="#b" x="10.996" y="4.317"/><use xlink:href="#2"/><use xlink:href="#3" y="2.171"/><use xlink:href="#4" y="4.342"/></svg><svg x="1504"><use xlink:href="#a"/><use xlink:href="#b" x="11.996" y="4.317"/><use xlink:href="#2"/><use xlink:href="#3" y="2.171"/><use xlink:href="#4" y="4.342"/></svg><svg x="1598"><use xlink:href="#a"/><use xlink:href="#b" x="12.996" y="4.317"/><use xlink:href="#2"/><use xlink:href="#3" y="2.171"/><text y="6.012" class="c">$</text><text x="2.004" y="6.012" class="c">./main.py</text><text x="12.024" y="6.012" class="c">/</text></svg><svg x="1692"><use xlink:href="#a"/><use xlink:href="#b" x="13.996" y="4.317"/><use xlink:href="#2"/><use xlink:href="#3" y="2.171"/><text y="6.012" class="c">$</text><text x="2.004" y="6.012" class="c">./main.py</text><text x="12.024" y="6.012" class="c">/u</text></svg><svg x="1786"><use xlink:href="#a"/><use xlink:href="#b" x="14.996" y="4.317"/><use xlink:href="#2"/><use xlink:href="#3" y="2.171"/><text y="6.012" class="c">$</text><text x="2.004" y="6.012" class="c">./main.py</text><text x="12.024" y="6.012" class="c">/us</text></svg><svg x="1880"><use xlink:href="#a"/><use xlink:href="#b" x="15.996" y="4.317"/><use xlink:href="#2"/><use xlink:href="#3" y="2.171"/><text y="6.012" class="c">$</text><text x="2.004" y="6.012" class="c">./main.py</text><text x="12.024" y="6.012" class="c">/usr</text></svg><svg x="1974"><use xlink:href="#a"/><use xlink:href="#b" x="16.996" y="4.317"/><use xlink:href="#2"/><use xlink:href="#3" y="2.171"/><text y="6.012" class="c">$</text><text x="2.004" y="6.012" class="c">./main.py</text><text x="12.024" y="6.012" class="c">/usr/</text></svg><svg x="2068"><use xlink:href="#a"/><use xlink:href="#b" x="17.996" y="4.317"/><use xlink:href="#2"/><use xlink:href="#3" y="2.171"/><text y="6.012" class="c">$</text><text x="2.004" y="6.012" class="c">./main.py</text><text x="12.024" y="6.012" class="c">/usr/b</text></svg><svg x="2162"><use xlink:href="#a"/><use xlink:href="#b" x="18.996" y="4.317"/><use xlink:href="#2"/><use xlink:href="#3" y="2.171"/><text y="6.012" class="c">$</text><text x="2.004" y="6.012" class="c">./main.py</text><text x="12.024" y="6.012" class="c">/usr/bi</text></svg><svg x="2256"><use xlink:href="#a"/><use xlink:href="#b" x="19.996" y="4.317"/><use xlink:href="#2"/><use xlink:href="#3" y="2.171"/><text y="6.012" class="c">$</text><text x="2.004" y="6.012" class="c">./main.py</text><text x="12.024" y="6.012" class="c">/usr/bin</text></svg><svg x="2350"><use xlink:href="#a"/><use xlink:href="#b" x="20.996" y="4.317"/><use xlink:href="#2"/><use xlink:href="#3" y="2.171"/><text y="6.012" class="c">$</text><text x="2.004" y="6.012" class="c">./main.py</text><text x="12.024" y="6.012" class="c">/usr/bin/</text></svg><svg x="2444"><use xlink:href="#a"/><use xlink:href="#b" x="21.996" y="4.317"/><use xlink:href="#2"/><use xlink:href="#3" y="2.171"/><text y="6.012" class="c">$</text><text x="2.004" y="6.012" class="c">./main.py</text><text x="12.024" y="6.012" class="c">/usr/bin/l</text></svg><svg x="2538"><use xlink:href="#a"/><use xlink:href="#b" x="22.996" y="4.317"/><use xlink:href="#2"/><use xlink:href="#3" y="2.171"/><use xlink:href="#5" y="4.342"/></svg><svg x="2632"><use xlink:href="#a"/><use xlink:href="#b" x="-.004" y="6.488"/><use xlink:href="#2"/><use xlink:href="#3" y="2.171"/><use xlink:href="#5" y="4.342"/></svg><svg x="2726"><use xlink:href="#a"/><use xlink:href="#b" x="-.004"/></svg><svg x="2820"><use xlink:href="#a"/><use xlink:href="#b" x="-.004"/>0<text y="1.67" class="e">01 00 00 00 00 00 00 00 a8 e7 ff ff ff 7f 00 00</text><use xlink:href="#6" y="2.171"/><use xlink:href="#7" y="4.342"/><use xlink:href="#7" y="6.513"/><use xlink:href="#7" y="8.684"/><use xlink:href="#7" y="10.855"/><use xlink:href="#7" y="13.026"/><use xlink:href="#7" y="15.197"/><use xlink:href="#7" y="17.368"/><use xlink:href="#7" y="19.539"/><use xlink:href="#7" y="21.71"/><use xlink:href="#7" y="23.881"/><use xlink:href="#7" y="26.052"/><use xlink:href="#7" y="28.223"/><use xlink:href="#7" y="30.394"/><use xlink:href="#7" y="32.565"/><use xlink:href="#7" y="34.736"/><use xlink:href="#7" y="36.907"/><use xlink:href="#7" y="39.078"/><use xlink:href="#7" y="41.249"/><use xlink:href="#7" y="43.42"/><use xlink:href="#7" y="45.591"/><use xlink:href="#7" y="47.762"/><use xlink:href="#7" y="49.933"/><use xlink:href="#7" y="52.104"/></svg><svg x="2914"><use xlink:href="#a"/><use xlink:href="#b" x=".996"/>0<text y="1.67" class="e">11 00 00 00 00 00 00 00 a8 e7 ff ff ff 7f 00 00</text><use xlink:href="#6" y="2.171"/><use xlink:href="#7" y="4.342"/><use xlink:href="#7" y="6.513"/><use xlink:href="#7" y="8.684"/><use xlink:href="#7" y="10.855"/><use xlink:href="#7" y="13.026"/><use xlink:href="#7" y="15.197"/><use xlink:href="#7" y="17.368"/><use xlink:href="#7" y="19.539"/><use xlink:href="#7" y="21.71"/><use xlink:href="#7" y="23.881"/><use xlink:href="#7" y="26.052"/><use xlink:href="#7" y="28.223"/><use xlink:href="#7" y="30.394"/><use xlink:href="#7" y="32.565"/><use xlink:href="#7" y="34.736"/><use xlink:href="#7" y="36.907"/><use xlink:href="#7" y="39.078"/><use xlink:href="#7" y="41.249"/><use xlink:href="#7" y="43.42"/><use xlink:href="#7" y="45.591"/><use xlink:href="#7" y="47.762"/><use xlink:href="#7" y="49.933"/><use xlink:href="#7" y="52.104"/></svg><svg x="3008"><use xlink:href="#a"/><use xlink:href="#b" x="3.996"/>0<text y="1.67" class="e">12 00 00 00 00 00 00 00 a8 e7 ff ff ff 7f 00 00</text><use xlink:href="#6" y="2.171"/><use xlink:href="#7" y="4.342"/><use xlink:href="#7" y="6.513"/><use xlink:href="#7" y="8.684"/><use xlink:href="#7" y="10.855"/><use xlink:href="#7" y="13.026"/><use xlink:href="#7" y="15.197"/><use xlink:href="#7" y="17.368"/><use xlink:href="#7" y="19.539"/><use xlink:href="#7" y="21.71"/><use xlink:href="#7" y="23.881"/><use xlink:href="#7" y="26.052"/><use xlink:href="#7" y="28.223"/><use xlink:href="#7" y="30.394"/><use xlink:href="#7" y="32.565"/><use xlink:href="#7" y="34.736"/><use xlink:href="#7" y="36.907"/><use xlink:href="#7" y="39.078"/><use xlink:href="#7" y="41.249"/><use xlink:href="#7" y="43.42"/><use xlink:href="#7" y="45.591"/><use xlink:href="#7" y="47.762"/><use xlink:href="#7" y="49.933"/><use xlink:href="#7" y="52.104"/></svg><svg x="3102"><use xlink:href="#a"/><use xlink:href="#b" x="4.996"/>0<text y="1.67" class="e">12 30 00 00 00 00 00 00 a8 e7 ff ff ff 7f 00 00</text><use xlink:href="#6" y="2.171"/><use xlink:href="#7" y="4.342"/><use xlink:href="#7" y="6.513"/><use xlink:href="#7" y="8.684"/><use xlink:href="#7" y="10.855"/><use xlink:href="#7" y="13.026"/><use xlink:href="#7" y="15.197"/><use xlink:href="#7" y="17.368"/><use xlink:href="#7" y="19.539"/><use xlink:href="#7" y="21.71"/><use xlink:href="#7" y="23.881"/><use xlink:href="#7" y="26.052"/><use xlink:href="#7" y="28.223"/><use xlink:href="#7" y="30.394"/><use xlink:href="#7" y="32.565"/><use xlink:href="#7" y="34.736"/><use xlink:href="#7" y="36.907"/><use xlink:href="#7" y="39.078"/><use xlink:href="#7" y="41.249"/><use xlink:href="#7" y="43.42"/><use xlink:href="#7" y="45.591"/><use xlink:href="#7" y="47.762"/><use xlink:href="#7" y="49.933"/><use xlink:href="#7" y="52.104"/></svg><svg x="3196"><use xlink:href="#a"/><use xlink:href="#b" x="7.996"/>0<text y="1.67" class="e">12 34 00 00 00 00 00 00 a8 e7 ff ff ff 7f 00 00</text><use xlink:href="#6" y="2.171"/><use xlink:href="#7" y="4.342"/><use xlink:href="#7" y="6.513"/><use xlink:href="#7" y="8.684"/><use xlink:href="#7" y="10.855"/><use xlink:href="#7" y="13.026"/><use xlink:href="#7" y="15.197"/><use xlink:href="#7" y="17.368"/><use xlink:href="#7" y="19.539"/><use xlink:href="#7" y="21.71"/><use xlink:href="#7" y="23.881"/><use xlink:href="#7" y="26.052"/><use xlink:href="#7" y="28.223"/><use xlink:href="#7" y="30.394"/><use xlink:href="#7" y="32.565"/><use xlink:href="#7" y="34.736"/><use xlink:href="#7" y="36.907"/><use xlink:href="#7" y="39.078"/><use xlink:href="#7" y="41.249"/><use xlink:href="#7" y="43.42"/><use xlink:href="#7" y="45.591"/><use xlink:href="#7" y="47.762"/><use xlink:href="#7" y="49.933"/><use xlink:href="#7" y="52.104"/></svg><svg x="3290"><use xlink:href="#a"/><use xlink:href="#b" x="8.996"/>0<text y="1.67" class="e">12 34 50 00 00 00 00 00 a8 e7 ff ff ff 7f 00 00</text><use xlink:href="#6" y="2.171"/><use xlink:href="#7" y="4.342"/><use xlink:href="#7" y="6.513"/><use xlink:href="#7" y="8.684"/><use xlink:href="#7" y="10.855"/><use xlink:href="#7" y="13.026"/><use xlink:href="#7" y="15.197"/><use xlink:href="#7" y="17.368"/><use xlink:href="#7" y="19.539"/><use xlink:href="#7" y="21.71"/><use xlink:href="#7" y="23.881"/><use xlink:href="#7" y="26.052"/><use xlink:href="#7" y="28.223"/><use xlink:href="#7" y="30.394"/><use xlink:href="#7" y="32.565"/><use xlink:href="#7" y="34.736"/><use xlink:href="#7" y="36.907"/><use xlink:href="#7" y="39.078"/><use xlink:href="#7" y="41.249"/><use xlink:href="#7" y="43.42"/><use xlink:href="#7" y="45.591"/><use xlink:href="#7" y="47.762"/><use xlink:href="#7" y="49.933"/><use xlink:href="#7" y="52.104"/></svg><svg x="3384"><use xlink:href="#a"/><use xlink:href="#b" x="11.996"/><use xlink:href="#8"/><use xlink:href="#6" y="2.171"/><use xlink:href="#7" y="4.342"/><use xlink:href="#7" y="6.513"/><use xlink:href="#7" y="8.684"/><use xlink:href="#7" y="10.855"/><use xlink:href="#7" y="13.026"/><use xlink:href="#7" y="15.197"/><use xlink:href="#7" y="17.368"/><use xlink:href="#7" y="19.539"/><use xlink:href="#7" y="21.71"/><use xlink:href="#7" y="23.881"/><use xlink:href="#7" y="26.052"/><use xlink:href="#7" y="28.223"/><use xlink:href="#7" y="30.394"/><use xlink:href="#7" y="32.565"/><use xlink:href="#7" y="34.736"/><use xlink:href="#7" y="36.907"/><use xlink:href="#7" y="39.078"/><use xlink:href="#7" y="41.249"/><use xlink:href="#7" y="43.42"/><use xlink:href="#7" y="45.591"/><use xlink:href="#7" y="47.762"/><use xlink:href="#7" y="49.933"/><use xlink:href="#7" y="52.104"/></svg><svg x="3478"><use xlink:href="#a"/><use xlink:href="#b" x="12.996"/><use xlink:href="#8"/><use xlink:href="#6" y="2.171"/><use xlink:href="#7" y="4.342"/><use xlink:href="#7" y="6.513"/><use xlink:href="#7" y="8.684"/><use xlink:href="#7" y="10.855"/><use xlink:href="#7" y="13.026"/><use xlink:href="#7" y="15.197"/><use xlink:href="#7" y="17.368"/><use xlink:href="#7" y="19.539"/><use xlink:href="#7" y="21.71"/><use xlink:href="#7" y="23.881"/><use xlink:href="#7" y="26.052"/><use xlink:href="#7" y="28.223"/><use xlink:href="#7" y="30.394"/><use xlink:href="#7" y="32.565"/><use xlink:href="#7" y="34.736"/><use xlink:href="#7" y="36.907"/><use xlink:href="#7" y="39.078"/><use xlink:href="#7" y="41.249"/><use xlink:href="#7" y="43.42"/><use xlink:href="#7" y="45.591"/><use xlink:href="#7" y="47.762"/><use xlink:href="#7" y="49.933"/><use xlink:href="#7" y="52.104"/></svg><svg x="3572"><use xlink:href="#a"/><use xlink:href="#b" x="15.996"/><use xlink:href="#9"/><use xlink:href="#6" y="2.171"/><use xlink:href="#7" y="4.342"/><use xlink:href="#7" y="6.513"/><use xlink:href="#7" y="8.684"/><use xlink:href="#7" y="10.855"/><use xlink:href="#7" y="13.026"/><use xlink:href="#7" y="15.197"/><use xlink:href="#7" y="17.368"/><use xlink:href="#7" y="19.539"/><use xlink:href="#7" y="21.71"/><use xlink:href="#7" y="23.881"/><use xlink:href="#7" y="26.052"/><use xlink:href="#7" y="28.223"/><use xlink:href="#7" y="30.394"/><use xlink:href="#7" y="32.565"/><use xlink:href="#7" y="34.736"/><use xlink:href="#7" y="36.907"/><use xlink:href="#7" y="39.078"/><use xlink:href="#7" y="41.249"/><use xlink:href="#7" y="43.42"/><use xlink:href="#7" y="45.591"/><use xlink:href="#7" y="47.762"/><use xlink:href="#7" y="49.933"/><use xlink:href="#7" y="52.104"/></svg><svg x="3666"><use xlink:href="#a"/><use xlink:href="#b" x="15.996" y="2.146"/><use xlink:href="#9"/><use xlink:href="#6" y="2.171"/><use xlink:href="#7" y="4.342"/><use xlink:href="#7" y="6.513"/><use xlink:href="#7" y="8.684"/><use xlink:href="#7" y="10.855"/><use xlink:href="#7" y="13.026"/><use xlink:href="#7" y="15.197"/><use xlink:href="#7" y="17.368"/><use xlink:href="#7" y="19.539"/><use xlink:href="#7" y="21.71"/><use xlink:href="#7" y="23.881"/><use xlink:href="#7" y="26.052"/><use xlink:href="#7" y="28.223"/><use xlink:href="#7" y="30.394"/><use xlink:href="#7" y="32.565"/><use xlink:href="#7" y="34.736"/><use xlink:href="#7" y="36.907"/><use xlink:href="#7" y="39.078"/><use xlink:href="#7" y="41.249"/><use xlink:href="#7" y="43.42"/><use xlink:href="#7" y="45.591"/><use xlink:href="#7" y="47.762"/><use xlink:href="#7" y="49.933"/><use xlink:href="#7" y="52.104"/></svg><svg x="3760"><use xlink:href="#a"/><use xlink:href="#b" x="16.996" y="2.146"/><use xlink:href="#9"/>0<text y="3.841" class="e">00 00 00 00 f0 00 00 00 b4 e7 ff ff ff 7f 00 00</text><use xlink:href="#7" y="4.342"/><use xlink:href="#7" y="6.513"/><use xlink:href="#7" y="8.684"/><use xlink:href="#7" y="10.855"/><use xlink:href="#7" y="13.026"/><use xlink:href="#7" y="15.197"/><use xlink:href="#7" y="17.368"/><use xlink:href="#7" y="19.539"/><use xlink:href="#7" y="21.71"/><use xlink:href="#7" y="23.881"/><use xlink:href="#7" y="26.052"/><use xlink:href="#7" y="28.223"/><use xlink:href="#7" y="30.394"/><use xlink:href="#7" y="32.565"/><use xlink:href="#7" y="34.736"/><use xlink:href="#7" y="36.907"/><use xlink:href="#7" y="39.078"/><use xlink:href="#7" y="41.249"/><use xlink:href="#7" y="43.42"/><use xlink:href="#7" y="45.591"/><use xlink:href="#7" y="47.762"/><use xlink:href="#7" y="49.933"/><use xlink:href="#7" y="52.104"/></svg><svg x="3854"><use xlink:href="#a"/><use xlink:href="#b" x="-.004" y="6.488"/><use xlink:href="#2"/><use xlink:href="#3" y="2.171"/><use xlink:href="#5" y="4.342"/></svg><svg x="3948"><use xlink:href="#a"/><use xlink:href="#b" x="-.004" y="13.001"/><use xlink:href="#2"/><use xlink:href="#3" y="2.171"/><use xlink:href="#5" y="4.342"/><use xlink:href="#10" y="6.513"/><use xlink:href="#11" y="8.684"/><use xlink:href="#12" y="10.855"/></svg><svg x="4042"><use xlink:href="#a"/><use xlink:href="#b" x="1.996" y="13.001"/><use xlink:href="#2"/><use xlink:href="#3" y="2.171"/><use xlink:href="#5" y="4.342"/><use xlink:href="#10" y="6.513"/><use xlink:href="#11" y="8.684"/><use xlink:href="#12" y="10.855"/><use xlink:href="#1" y="13.026"/></svg><svg x="4136"><use xlink:href="#a"/><use xlink:href="#b" x="-.004" y="17.343"/><use xlink:href="#2"/><use xlink:href="#3" y="2.171"/><use xlink:href="#5" y="4.342"/><use xlink:href="#10" y="6.513"/><use xlink:href="#11" y="8.684"/><use xlink:href="#12" y="10.855"/><use xlink:href="#1" y="13.026"/><text y="16.867" class="c">exit</text></svg></svg></g></g></svg></svg>